<?xml version="1.0" encoding="UTF-8"?>
<svg id="Layer_2" data-name="Layer 2" xmlns="http://www.w3.org/2000/svg" viewBox="0 0 162.7 162.7">
  <defs>
    <style>
      .cls-1 {
        fill: #798e7e;
      }

      .cls-1, .cls-2, .cls-3, .cls-4 {
        stroke-width: 0px;
      }

      .cls-2 {
        fill: #586a5d;
      }

      .cls-3 {
        fill: #415042;
      }

      .cls-4 {
        fill: #242424;
      }
    </style>
  </defs>
  <g id="Layer_1-2" data-name="Layer 1">
    <g>
      <g>
        <rect class="cls-3" x="23.16" y="23.16" width="116.38" height="116.38" rx="5.4" ry="5.4" transform="translate(81.35 -33.7) rotate(45)"/>
        <path class="cls-4" d="m81.35,162.7c-2.37,0-4.6-.92-6.27-2.6L2.6,87.62c-1.68-1.68-2.6-3.9-2.6-6.27s.92-4.6,2.6-6.27L75.08,2.6c1.68-1.68,3.9-2.6,6.27-2.6s4.6.92,6.27,2.6l72.48,72.48c1.68,1.68,2.6,3.9,2.6,6.27s-.92,4.6-2.6,6.27l-72.48,72.48c-1.68,1.68-3.9,2.6-6.27,2.6Zm0-158.84c-1.28,0-2.57.49-3.55,1.47L5.33,77.8c-1.96,1.96-1.96,5.14,0,7.09l72.48,72.48c1.96,1.96,5.14,1.96,7.09,0l72.48-72.48c1.96-1.96,1.96-5.14,0-7.09L84.9,5.33c-.98-.98-2.26-1.47-3.55-1.47Z"/>
      </g>
      <g>
        <path class="cls-4" d="m116.62,97.81c.52.85.52,1.88-.02,2.75-.52.88-1.39,1.36-2.39,1.36h-7.11v5.1h8.47c1.08,0,1.89.86,1.89,2.02s-.85,2-2.02,2H47.23c-1.16,0-2-.85-2-2s.85-2.02,2-2.02h12.43v-8.55h-11.07c-1,0-1.88-.5-2.39-1.38-.53-.86-.53-1.91,0-2.77l8.58-15.11h-2.6c-1,0-1.88-.49-2.39-1.36-.53-.88-.53-1.91-.02-2.77l6.75-12.02h-1.88c-1,0-1.88-.5-2.39-1.36-.52-.88-.52-1.91,0-2.79l10.97-19.35c.45-.92,1.58-1.63,2.65-1.63s2.19.7,2.68,1.67l10.96,19.33c.52.85.52,1.88,0,2.75-.53.86-1.41,1.36-2.41,1.36h-1.86l6.75,12.04c.5.85.5,1.88-.02,2.75s-1.39,1.36-2.39,1.36h-2.6l8.58,15.12c.39.64.49,1.39.3,2.08-.06.23-.16.47-.3.67-.53.88-1.39,1.38-2.41,1.38h-11.05v8.55h25.08v-5.1h-7.11c-1,0-1.88-.49-2.39-1.36-.53-.88-.53-1.91,0-2.77l.14-.25,5.46-9.67h-.63c-1,0-1.88-.5-2.39-1.36-.52-.88-.52-1.91,0-2.79l4.27-7.58h-.14c-1.02,0-1.88-.49-2.41-1.36-.52-.86-.52-1.91,0-2.77l7.51-13.43c.5-.99,1.52-1.63,2.66-1.63,1.06,0,2.19.7,2.68,1.66l7.5,13.41c.52.85.52,1.89,0,2.75-.53.88-1.41,1.36-2.41,1.36h-.14l4.29,7.59c.5.86.5,1.89-.02,2.77-.52.86-1.39,1.36-2.39,1.36h-.64l5.64,9.94Zm-4.62.09l-5.65-10.03h-8.83l-5.65,10.03h20.13Zm-2.47-14.18l-4.4-7.69h-6.25l-4.41,7.69h15.06Zm-1.83-11.72l-5.7-10.08-5.68,10.08h11.38Zm-4.63,35.03v-5.1h-2.13v5.1h2.13Zm-22.13-12.58l-8.62-15.21h-13.02l-8.61,15.21h30.26Zm-3.46-19.24l-6.89-12.13h-9.45l-6.87,12.13h23.21Zm-2.58-16.15l-9.03-16.12-9.14,16.12h18.17Zm-6.86,47.98v-8.55h-4.35v8.55h4.35Z"/>
        <g>
          <polygon class="cls-2" points="106.35 87.87 112.01 97.9 91.88 97.9 97.53 87.87 106.35 87.87"/>
          <polygon class="cls-2" points="105.13 76.03 109.53 83.72 94.47 83.72 98.89 76.03 105.13 76.03"/>
          <polygon class="cls-2" points="102 61.91 107.7 71.99 96.32 71.99 102 61.91"/>
          <polygon class="cls-2" points="72.31 79.23 80.93 94.44 50.68 94.44 59.29 79.23 72.31 79.23"/>
          <polygon class="cls-2" points="70.59 63.07 77.47 75.2 54.26 75.2 61.13 63.07 70.59 63.07"/>
          <polygon class="cls-2" points="65.86 42.93 74.89 59.05 56.72 59.05 65.86 42.93"/>
        </g>
        <g>
          <polygon class="cls-1" points="65.81 46.61 59.32 57.65 62.56 57.65 65.81 46.61"/>
          <polygon class="cls-1" points="57.71 73.91 61.93 66.25 63.68 66.25 60.11 73.91 57.71 73.91"/>
          <polygon class="cls-1" points="101.22 65.26 98.14 70.9 99.52 70.9 101.22 65.26"/>
          <polygon class="cls-1" points="99.26 76.87 96.32 82.46 98.14 82.46 100.19 76.87 99.26 76.87"/>
        </g>
      </g>
    </g>
  </g>
</svg>